inDegrees=yes
name=ik_S53_A02_T02
DataType=double
version=3
OpenSimVersion=4.3-2021-08-27-4bc7ad9
endheader
time	pelvis_tilt	pelvis_list	pelvis_rotation	pelvis_tx	pelvis_ty	pelvis_tz	hip_flexion_r	hip_adduction_r	hip_rotation_r	knee_angle_r	knee_angle_r_beta	ankle_angle_r	subtalar_angle_r	mtp_angle_r	hip_flexion_l	hip_adduction_l	hip_rotation_l	knee_angle_l	knee_angle_l_beta	ankle_angle_l	subtalar_angle_l	mtp_angle_l	lumbar_extension	lumbar_bending	lumbar_rotation	arm_flex_r	arm_add_r	arm_rot_r	elbow_flex_r	pro_sup_r	wrist_flex_r	wrist_dev_r	arm_flex_l	arm_add_l	arm_rot_l	elbow_flex_l	pro_sup_l	wrist_flex_l	wrist_dev_l
15.7833333333337	-1.142499648366875	2.87466445028279	-87.09139913196047	0	0.9399999999999999	0	8.798948909013216	-3.767665125609284	-15.02127838923044	2.007720597925857	0.03504133489391544	0	0	0	-4.642478425841848	0.2089942209269306	-2.689806765355924	-5.930860437813839	-0.1035130421161239	0	0	0	0	0	0	34.52706796679509	-34.52706796679514	4.597700761344051	79.59525120461191	85.40229949482001	0	0	34.52706796679509	-34.52706796679514	4.597700761344051	79.59525120461191	85.40229949474515	0	0
15.80000000000036	-1.229150206116528	2.563627656284449	-87.62050665715584	0	0.9399999999999999	0	7.855447522167355	-3.957208290449945	-15.43319438342973	4.375400620891518	0.07636514692836117	0	0	0	-4.568845729556747	0.08406813794625816	-3.160495858383228	-6.151103514804753	-0.1073570089643387	0	0	0	0	0	0	34.58400120824212	-34.58400120824216	4.601528835642038	79.64677399584509	85.3984714207086	0	0	34.58400120824212	-34.58400120824216	4.601528835642038	79.64677399584509	85.39847142063444	0	0
15.81666666666703	-1.269810016655725	2.281552471150748	-88.02581397079638	0	0.9399999999999999	0	7.099346111854062	-4.333854795634576	-15.93881649999914	7.350090362625574	0.1282832771469202	0	0	0	-4.546956691878179	0.01407920448817205	-3.658844122681911	-5.85228413346681	-0.1021416268912191	0	0	0	0	0	0	34.65935744001515	-34.65935744001519	4.6065275335302	79.71404252539762	85.3934727230635	0	0	34.65935744001515	-34.65935744001519	4.6065275335302	79.71404252539762	85.39347272299025	0	0
15.8333333333337	-1.310335144472952	2.039842721408219	-88.26306132258718	0	0.9399999999999999	0	6.388653489159307	-4.698942426662081	-16.44829599064244	10.60171991957749	0.1850349189708956	0	0	0	-4.77199891165972	-0.01616977377283729	-3.795014737479955	-6.068741092063431	-0.1059195135075832	0	0	0	0	0	0	34.72101956413197	-34.72101956413202	4.610565453431764	79.76837429185245	85.38943480335786	0	0	34.72101956413197	-34.72101956413202	4.610565453431764	79.76837429185245	85.38943480328533	0	0
15.85000000000037	-1.394831073994037	1.720086464069551	-88.40487996780136	0	0.9399999999999999	0	6.09627020583835	-4.592248117084128	-16.30954852258884	10.62268639700094	0.18540085303448	0	0	0	-4.711994779005853	-0.1132305868573813	-3.715114170193837	-6.105689733684033	-0.1065643889580021	0	0	0	0	0	0	34.72216329265881	-34.72216329265886	4.610651971086919	79.76954002072448	85.38934828570702	0	0	34.72216329265881	-34.72216329265886	4.610651971086919	79.76954002072448	85.38934828563453	0	0
15.86666666666703	-1.500364021275502	1.337340358166836	-88.45003460988468	0	0.9399999999999999	0	5.201057803781885	-4.815944614801071	-16.41157943838898	13.85156141345254	0.2417553532069464	0	0	0	-4.728260313029492	-0.2403931203401074	-3.552566929227653	-6.17353561777375	-0.1077485230192941	0	0	0	0	0	0	34.81189091117656	-34.8118909111766	4.616648308716957	79.8502364250955	85.38335194836877	0	0	34.81189091117656	-34.8118909111766	4.616648308716957	79.8502364250955	85.38335194829736	0	0
15.8833333333337	-1.507537204879071	1.314505172722807	-88.45666154910414	0	0.9399999999999999	0	4.185183342331833	-5.336409024490922	-16.07796117605516	16.76568041433458	0.2926163245672654	0	0	0	-4.369287595230857	-0.30616181468938	-3.348973844914028	-6.175616167117303	-0.1077848354555893	0	0	0	0	0	0	34.87250374496838	-34.87250374496843	4.620538138223626	79.90256421322684	85.37946211905002	0	0	34.87250374496838	-34.87250374496843	4.620538138223626	79.90256421322684	85.3794621189794	0	0
15.90000000000037	-1.522997597799217	0.9597856276447007	-88.46962264268363	0	0.9399999999999999	0	2.423434267166873	-5.726874079797523	-16.45601149822761	19.37576516024582	0.3381708971394963	0	0	0	-4.316219104926327	-0.3729665076623424	-3.085792360796534	-6.369798851600585	-0.1111739626501839	0	0	0	0	0	0	34.92132954179766	-34.9213295417977	4.623709145448475	79.9452267159147	85.37629111197873	0	0	34.92132954179766	-34.9213295417977	4.623709145448475	79.9452267159147	85.37629111190873	0	0
15.91666666666704	-1.441004898710708	0.6422198991771719	-88.52527875624494	0	0.9399999999999999	0	0.511170851884571	-5.934251334648834	-16.61882522750847	21.4185671990943	0.3738245186838554	0	0	0	-4.261004518778736	-0.3287411801512936	-3.044032979289128	-6.040538447987543	-0.1054272845106909	0	0	0	0	0	0	34.96574544395472	-34.96574544395476	4.626544062348464	79.98336111259317	85.3734561952156	0	0	34.96574544395472	-34.96574544395476	4.626544062348464	79.98336111259317	85.37345619514613	0	0
15.9333333333337	-1.215100277182172	0.4449347522119129	-88.63751354180675	0	0.9399999999999999	0	-1.021825001170362	-5.927839056085848	-16.58723029057382	20.13048433735003	0.351343231707907	0	0	0	-4.43698429572146	-0.1107941633105168	-3.074945428854728	-6.205036109464961	-0.1082983103153028	0	0	0	0	0	0	34.96706737855523	-34.96706737855527	4.626641636803224	79.98467534333894	85.37335862076566	0	0	34.96706737855523	-34.96706737855527	4.626641636803224	79.98467534333894	85.37335862069624	0	0
15.95000000000037	-1.110857405468323	0.1592548237758866	-88.72393951579708	0	0.9399999999999999	0	-2.891776784648914	-6.225145766765868	-16.81332342589091	21.87611302557754	0.3818101998347466	0	0	0	-4.318953238129985	-0.1097752609321818	-3.054946596470327	-6.196454569992085	-0.1081485341966113	0	0	0	0	0	0	35.01546164662891	-35.01546164662895	4.62987304945306	80.0281597310173	85.37012720827296	0	0	35.01546164662891	-35.01546164662895	4.62987304945306	80.0281597310173	85.37012720820417	0	0
15.96666666666704	-0.9515317525216442	-0.1156679225117501	-88.84341202001733	0	0.9399999999999999	0	-3.244017427568481	-6.858990967914506	-16.69240424305703	24.77288699754906	0.4323684433317235	0	0	0	-4.228260160568342	-0.04887459334621617	-3.303009091529879	-6.233809958812542	-0.108800508724891	0	0	0	0	0	0	35.09777720277867	-35.09777720277872	4.63521451845305	80.10001809736049	85.36478573953138	0	0	35.09777720277867	-35.09777720277872	4.63521451845305	80.10001809736049	85.36478573946361	0	0
15.98333333333371	-0.9621675371510293	-0.1418522587676715	-88.83743143834815	0	0.9399999999999999	0	-4.614838505765259	-7.005386352970143	-16.63626599545768	26.00127479593932	0.4538078549049578	0	0	0	-3.845832409196358	-0.1910947024018464	-3.565017352380818	-6.169734540976629	-0.1076821817140632	0	0	0	0	0	0	35.09968049682588	-35.09968049682593	4.635354326793317	80.1019009444357	85.36464593119803	0	0	35.09968049682588	-35.09968049682593	4.635354326793317	80.1019009444357	85.36464593113028	0	0
16.00000000000037	-0.8328014343670073	-0.4014283689942449	-88.93105631375253	0	0.9399999999999999	0	-6.010074730309172	-7.260185072890055	-16.25215309251718	26.96592583035254	0.4706441915882377	0	0	0	-3.686378198579765	-0.2039312667300925	-3.848557338967846	-6.136480979633672	-0.1071017975806147	0	0	0	0	0	0	35.10172810274097	-35.10172810274102	4.635504869523531	80.10392836629772	85.36449538847529	0	0	35.10172810274097	-35.10172810274102	4.635504869523531	80.10392836629772	85.36449538840756	0	0
16.01666666666704	-0.7446603967385319	-0.5765045788619452	-88.95951724805099	0	0.9399999999999999	0	-7.165813846319896	-7.410744398268516	-15.76678219337828	27.57835277200158	0.4813330581479326	0	0	0	-3.428936488935053	-0.2615454797379902	-3.996357940333923	-6.103012321296611	-0.1065176592964079	0	0	0	0	0	0	35.10368312696055	-35.1036831269606	4.635648695681819	80.10586533950766	85.36435156232407	0	0	35.10368312696055	-35.1036831269606	4.635648695681819	80.10586533950766	85.36435156225639	0	0
16.0333333333337	-0.663297130045473	-0.6849507971784673	-88.96481791478054	0	0.9399999999999999	0	-8.129850350214788	-7.564534082977328	-15.17114690363975	27.83028329467534	0.4857300752548599	0	0	0	-3.533926443721397	-0.193429282768302	-3.99446828223508	-6.087050283612499	-0.1062390691834928	0	0	0	0	0	0	35.10469402804093	-35.10469402804097	4.635723123715476	80.10686770299347	85.36427713429411	0	0	35.10469402804093	-35.10469402804097	4.635723123715476	80.10686770299347	85.36427713422641	0	0
16.05000000000037	-0.6243945283282047	-0.7078212935978746	-88.94521676772663	0	0.9399999999999999	0	-8.907585621248446	-7.355565552612548	-14.74377690298858	27.00969483499885	0.4714081048296366	0	0	0	-3.091533794784487	-0.2843095349488489	-4.087401834670841	-6.083088573131218	-0.1061699242915836	0	0	0	0	0	0	35.10643865618306	-35.1064386561831	4.635851775374841	80.10860034478203	85.36414848264111	0	0	35.10643865618306	-35.1064386561831	4.635851775374841	80.10860034478203	85.36414848257343	0	0
16.06666666666704	-0.6277235570579349	-0.7205096162255198	-88.9450357962855	0	0.9399999999999999	0	-8.967914604415665	-7.584070160584887	-14.53334398320815	27.56874069339723	0.4811652957283262	0	0	0	-2.607813726603484	-0.4215451463545827	-4.214870436948168	-6.04664826612767	-0.1055339209539342	0	0	0	0	0	0	35.10888958954209	-35.10888958954214	4.636032037581129	80.11102800349889	85.36396822044374	0	0	35.10888958954209	-35.10888958954214	4.636032037581129	80.11102800349889	85.36396822037605	0	0
16.0833333333337	-0.4790969890715734	-0.7558901982367809	-88.75729908602285	0	0.9399999999999999	0	-9.701897728445539	-7.511103185313967	-13.80973672001092	26.69765589371099	0.4659619979097261	0	0	0	-2.127926492553473	-0.4162289279170105	-4.144650399281621	-6.028002044805344	-0.105208482998804	0	0	0	0	0	0	35.11059740955326	-35.1105974095533	4.636158001026377	80.11272443792552	85.36384225700472	0	0	35.11059740955326	-35.1105974095533	4.636158001026377	80.11272443792552	85.36384225693705	0	0
16.10000000000037	-0.3356940929128852	-0.7116713385296428	-88.54036883424067	0	0.9399999999999999	0	-10.22260984332042	-7.141616132582454	-13.02672214159394	25.2314213239913	0.440371377061555	0	0	0	-1.540063821092364	-0.4127247843328533	-3.967369656742805	-6.03712523303291	-0.1053677126716542	0	0	0	0	0	0	35.11198440239427	-35.11198440239431	4.636260157783707	80.1141002350503	85.36374010025246	0	0	35.11198440239427	-35.11198440239431	4.636260157783707	80.1141002350503	85.36374010018481	0	0
16.11666666666703	-0.1555926068819945	-0.711386211481749	-88.23381812621815	0	0.9399999999999999	0	-10.895881461097	-6.92882414005057	-13.26188022592493	23.10023719391157	0.4031751970254127	0	0	0	-0.9661123540058857	-0.4136511584670712	-3.692160583905521	-5.97675011669171	-0.1043139681052256	0	0	0	0	0	0	35.1136685616867	-35.11366856168674	4.636383301755754	80.11575858391814	85.36361695628655	0	0	35.1136685616867	-35.11366856168674	4.636383301755754	80.11575858391814	85.36361695621891	0	0
16.1333333333337	0.05900879134488867	-0.6288218387818417	-87.98149380230646	0	0.9399999999999999	0	-11.23333137125932	-6.079702921668588	-12.03061299405499	20.39903845231134	0.3560303852337612	0	0	0	-0.2890648067292864	-0.3658866441671838	-3.552488882446791	-5.965306961727908	-0.1041142473742914	0	0	0	0	0	0	35.11756785813807	-35.11756785813812	4.636670413912369	80.11962523934368	85.3633298441441	0	0	35.11756785813807	-35.11756785813812	4.636670413912369	80.11962523934368	85.36332984407652	0	0
16.15000000000036	0.3644968916702295	-0.3880268863289664	-87.77724375779464	0	0.9399999999999999	0	-11.39898857902166	-6.146772086547614	-13.28320450272232	20.13628131581108	0.3514444080687193	0	0	0	-0.05893821241668974	-0.05140832749573863	-3.345091079262276	-5.974172975022165	-0.1042689884978017	0	0	0	0	0	0	35.11861774577662	-35.11861774577667	4.636747775709884	80.12066710760044	85.36325248235043	0	0	35.11861774577662	-35.11861774577667	4.636747775709884	80.12066710760044	85.36325248228286	0	0
16.16666666666703	0.3763541894597504	-0.4052379526371115	-87.77775429777405	0	0.9399999999999999	0	-11.02640473556855	-5.652017395993214	-12.12937380136742	19.84877528725485	0.3464264812510804	0	0	0	0.5206713674701615	-0.2038960875842584	-3.604051383554999	-5.997071854584958	-0.1046686493411901	0	0	0	0	0	0	35.11979843579466	-35.1197984357947	4.636834780707286	80.12183884520054	85.36316547735731	0	0	35.11979843579466	-35.1197984357947	4.636834780707286	80.12183884520054	85.36316547728975	0	0
